<svg width="31" height="31" viewBox="0 0 31 31" fill="none" xmlns="http://www.w3.org/2000/svg">
<ellipse cx="9.64508" cy="7.7303" rx="7.40691" ry="7.63838" transform="rotate(-0.715866 9.64508 7.7303)" fill="#FFD338"/>
<path d="M14.4514 6.572C14.0968 6.53392 13.8403 6.21564 13.8784 5.8611C13.9164 5.50656 14.2347 5.25002 14.5893 5.2881C14.9438 5.32619 15.2003 5.64447 15.1623 5.999C15.1242 6.35354 14.8059 6.61008 14.4514 6.572Z" fill="black"/>
<circle cx="10.9258" cy="5.54394" r="0.64564" transform="rotate(96.1306 10.9258 5.54394)" fill="black"/>
<path d="M15.4539 9.09937V9.09937C13.5841 10.4153 11.0328 10.1639 9.45582 8.50845L9.39924 8.44905" stroke="black"/>
<ellipse cx="7.50177" cy="23.2696" rx="7.40691" ry="7.63838" transform="rotate(-0.715866 7.50177 23.2696)" fill="#FFD338"/>
<path d="M10.4306 20.7167C10.1162 20.864 9.74185 20.7286 9.59451 20.4142C9.44716 20.0997 9.5826 19.7254 9.89701 19.5781C10.2114 19.4307 10.5858 19.5662 10.7331 19.8806C10.8804 20.195 10.745 20.5693 10.4306 20.7167Z" fill="black"/>
<circle cx="6.97606" cy="21.6413" r="0.628712" transform="rotate(64.8906 6.97606 21.6413)" fill="black"/>
<path d="M12.5415 22.3148V22.3148C11.6494 24.3547 9.39825 25.4339 7.24923 24.852L7.17211 24.8311" stroke="black"/>
<ellipse cx="23.0411" cy="18.4471" rx="7.40691" ry="7.63838" transform="rotate(-0.715866 23.0411 18.4471)" fill="#FFD338"/>
<path d="M21.9274 16.5582C21.557 16.6984 21.1431 16.5116 21.003 16.1412C20.8629 15.7707 21.0496 15.3568 21.4201 15.2167C21.7905 15.0766 22.2044 15.2633 22.3445 15.6338C22.4846 16.0042 22.2979 16.4181 21.9274 16.5582Z" fill="black"/>
<circle cx="17.9176" cy="17.3083" r="0.717142" transform="rotate(69.2823 17.9176 17.3083)" fill="black"/>
<path d="M24.1885 18.5602V18.5602C22.9957 20.8022 20.3412 21.833 17.9479 20.9835L17.8621 20.953" stroke="black"/>
</svg>
