<svg width="48" height="59" viewBox="0 0 48 59" fill="none" xmlns="http://www.w3.org/2000/svg">
<circle cx="20.4231" cy="20.4231" r="20.4231" transform="matrix(0.0120757 0.999927 -0.999916 0.0129266 43.5659 0)" fill="#FFD338"/>
<path d="M29.7613 13.8236C28.5046 13.8398 27.4732 12.8032 27.4575 11.5084C27.4418 10.2135 28.4478 9.1507 29.7044 9.13452C30.961 9.11834 31.9925 10.1549 32.0082 11.4498C32.0239 12.7446 31.0179 13.8074 29.7613 13.8236Z" fill="black"/>
<ellipse cx="2.34472" cy="2.27553" rx="2.34472" ry="2.27553" transform="matrix(0.0121251 0.999926 -0.999917 0.0128738 19.2385 9.26929)" fill="black"/>
<path d="M34.3302 22.503V22.503C28.3847 28.0163 19.2586 28.2144 13.0874 22.9642L12.87 22.7793" stroke="black" stroke-width="2"/>
<path d="M23.6001 32.9693L44.658 27.039C45.9339 26.6797 47.2001 27.6385 47.2001 28.9641V50.8793C47.2001 51.7763 46.6029 52.5636 45.739 52.8053L23.6001 59V32.9693Z" fill="#F59607"/>
<path d="M23.6001 32.9693L2.54224 27.039C1.26627 26.6797 9.72748e-05 27.6385 9.72748e-05 28.9641V50.8793C9.72748e-05 51.7763 0.59734 52.5636 1.46117 52.8053L23.6001 59V32.9693Z" fill="#F59607"/>
<path d="M3.94972 42.7199C3.622 42.6458 3.38532 42.5409 3.23967 42.4053C3.10312 42.2717 3.01664 42.1215 2.98023 41.9546C2.94381 41.7783 2.92561 41.5969 2.92561 41.4102V33.7522C2.92561 33.5749 2.94381 33.4157 2.98023 33.2746C3.01664 33.1241 3.10767 33.0141 3.25332 32.9444C3.39897 32.8746 3.64021 32.8779 3.97703 32.9541C4.20461 33.0056 4.37757 33.0587 4.49591 33.1135C4.61425 33.1683 4.70073 33.2299 4.75535 33.2982C4.80997 33.3573 4.86914 33.4266 4.93286 33.5064L8.00519 38.4576L7.80037 38.4112L10.8864 34.8535C10.9592 34.7767 11.032 34.7232 11.1048 34.693C11.1777 34.6628 11.2687 34.6507 11.3779 34.6568C11.4963 34.6649 11.6601 34.6926 11.8695 34.74C12.1972 34.8141 12.4339 34.919 12.5795 35.0547C12.7252 35.1903 12.8162 35.3462 12.8526 35.5225C12.8891 35.6894 12.9073 35.8615 12.9073 36.0388V43.6968C12.9073 43.8742 12.8891 44.038 12.8526 44.1885C12.8162 44.3389 12.7252 44.449 12.5795 44.5187C12.4339 44.5884 12.1927 44.5851 11.8558 44.5089C11.5281 44.4348 11.2914 44.3299 11.1458 44.1942C11.0001 44.0586 10.9091 43.9027 10.8727 43.7264C10.8363 43.5502 10.8181 43.3734 10.8181 43.1961V38.1981L8.78351 40.6917C8.7471 40.7301 8.69703 40.7841 8.63331 40.8537C8.56959 40.914 8.47856 40.9587 8.36022 40.9879C8.25098 41.0192 8.10077 41.0132 7.90961 40.97C7.70934 40.9246 7.55003 40.8606 7.43169 40.7778C7.32245 40.6971 7.23597 40.6122 7.17225 40.5231C7.10853 40.434 7.05391 40.3563 7.00839 40.29L4.98748 36.8928V41.9048C4.98748 42.0821 4.96928 42.246 4.93286 42.3964C4.89645 42.5468 4.80542 42.6569 4.65977 42.7266C4.52322 42.7984 4.28654 42.7961 3.94972 42.7199ZM15.0299 45.2271C14.7022 45.153 14.4655 45.0481 14.3199 44.9125C14.1742 44.7675 14.0832 44.6069 14.0468 44.4307C14.0195 44.2472 14.0058 44.0621 14.0058 43.8754V36.2874C14.0058 36.1007 14.0195 35.9312 14.0468 35.7787C14.0832 35.6189 14.1742 35.5042 14.3199 35.4345C14.4655 35.3554 14.7068 35.354 15.0436 35.4302L18.4436 36.1996C18.9807 36.3211 19.4586 36.5599 19.8774 36.916C20.2961 37.2721 20.6284 37.6973 20.8742 38.1916C21.12 38.6858 21.2383 39.1886 21.2292 39.6999C21.2383 39.9073 21.2201 40.1038 21.1746 40.2895C21.1291 40.4752 21.0608 40.6511 20.9698 40.8172C20.8878 40.976 20.7832 41.1156 20.6557 41.2361C20.8469 41.466 21.0062 41.7168 21.1336 41.9883C21.2611 42.2504 21.3567 42.5194 21.4204 42.7951C21.4932 43.073 21.5296 43.3472 21.5296 43.6179C21.5205 44.0451 21.4386 44.4326 21.2838 44.7802C21.1382 45.1206 20.9288 45.3999 20.6557 45.6181C20.3826 45.827 20.0686 45.9706 19.7135 46.0489C19.3585 46.1273 18.9807 46.1211 18.5802 46.0305L15.0299 45.2271ZM16.0814 43.351L18.4436 43.8856C18.5984 43.9206 18.7531 43.9276 18.9079 43.9066C19.0718 43.8784 19.2038 43.7962 19.3039 43.6602C19.4131 43.5169 19.4677 43.296 19.4677 42.9973C19.4677 42.8013 19.445 42.6328 19.3995 42.4919C19.354 42.3509 19.2902 42.2385 19.2083 42.1546C19.1264 42.0614 19.0353 41.9895 18.9352 41.9388C18.8351 41.8881 18.7304 41.8458 18.6212 41.8117C18.5119 41.7777 18.4072 41.7493 18.3071 41.7267L17.9111 41.6371C17.6016 41.567 17.3831 41.4523 17.2557 41.2928C17.1282 41.1239 17.0645 40.8715 17.0645 40.5355C17.0645 40.2088 17.1328 39.9956 17.2693 39.8959C17.415 39.7981 17.6426 39.7843 17.9521 39.8543L18.3481 39.9439C18.4391 39.9645 18.5347 39.9815 18.6348 39.9948C18.7349 40.0082 18.8214 39.9997 18.8942 39.9695C18.9762 39.9414 19.0399 39.8812 19.0854 39.7888C19.14 39.6891 19.1673 39.546 19.1673 39.3593C19.1673 39.042 19.09 38.8005 18.9352 38.6348C18.7805 38.4598 18.5074 38.328 18.1159 38.2394L16.0814 37.779V43.351Z" fill="white"/>
<path d="M36.2968 34.6875C36.449 34.6425 36.5877 34.6154 36.713 34.6063C36.8383 34.5972 36.9412 34.646 37.0217 34.7528C37.1112 34.8477 37.1559 35.0491 37.1559 35.3571C37.1559 35.6464 37.1112 35.8697 37.0217 36.0268C36.9412 36.1814 36.8338 36.2925 36.6995 36.3603C36.5653 36.428 36.4221 36.4844 36.27 36.5295L34.1088 37.1697V44.0997C34.1088 44.277 34.0909 44.4503 34.0551 44.6196C34.0283 44.7862 33.9433 44.942 33.8001 45.0871C33.6658 45.2202 33.4332 45.3358 33.1021 45.4339C32.7799 45.5293 32.5472 45.5516 32.404 45.5007C32.2608 45.4404 32.1758 45.3349 32.149 45.1842C32.1221 45.0242 32.1087 44.8555 32.1087 44.6781V37.7621L29.9207 38.4103C29.7775 38.4527 29.6388 38.4798 29.5046 38.4915C29.3703 38.4939 29.2629 38.4464 29.1824 38.3489C29.1019 38.2421 29.0616 38.0394 29.0616 37.7407C29.0616 37.4421 29.1019 37.2201 29.1824 37.0749C29.2629 36.9204 29.3703 36.8093 29.5046 36.7415C29.6388 36.6738 29.7775 36.6187 29.9207 36.5763L36.2968 34.6875ZM39.0008 43.6866C38.6787 43.782 38.446 43.8043 38.3028 43.7534C38.1596 43.6931 38.0701 43.5843 38.0343 43.4269C38.0075 43.2668 37.9941 43.0981 37.9941 42.9208V35.2628C37.9941 35.0761 38.0075 34.8995 38.0343 34.7329C38.0701 34.5636 38.1596 34.4064 38.3028 34.2614C38.446 34.1163 38.6831 33.9947 39.0143 33.8966C39.3543 33.7959 39.5915 33.777 39.7257 33.8399C39.8689 33.9001 39.9539 34.0056 39.9807 34.1563C40.0165 34.3044 40.0344 34.4764 40.0344 34.6724V42.3304C40.0344 42.5078 40.0165 42.6857 39.9807 42.8643C39.945 43.0336 39.8555 43.1908 39.7123 43.3359C39.578 43.4689 39.3409 43.5859 39.0008 43.6866Z" fill="white"/>
</svg>
