<svg width="515" height="360" viewBox="0 0 515 360" fill="none" xmlns="http://www.w3.org/2000/svg">
<circle cx="388.909" cy="125.91" r="108" transform="rotate(100.524 388.909 125.91)" fill="#FFE99D"/>
<ellipse cx="394.654" cy="94.513" rx="7.94129" ry="8.20579" transform="rotate(101.172 394.654 94.513)" fill="black"/>
<ellipse cx="330.25" cy="81.794" rx="7.94129" ry="8.20579" transform="rotate(101.172 330.25 81.794)" fill="black"/>
<path d="M403.351 149.294V149.294C371.401 171.706 327.261 163.396 305.648 130.899L304.959 129.862" stroke="black" stroke-width="4"/>
<circle cx="125.909" cy="233.909" r="108" transform="rotate(100.524 125.909 233.909)" fill="#FFD338"/>
<ellipse cx="179.139" cy="189.043" rx="7.94129" ry="8.20579" transform="rotate(73.8364 179.139 189.043)" fill="black"/>
<ellipse cx="116.086" cy="207.319" rx="7.94129" ry="8.20579" transform="rotate(73.8364 116.086 207.319)" fill="black"/>
<path d="M212.02 233.713V233.713C193.929 268.294 150.902 281.181 116.781 262.237L115.692 261.633" stroke="black" stroke-width="4"/>
</svg>
