<svg width="464" height="190" viewBox="0 0 464 190" fill="none" xmlns="http://www.w3.org/2000/svg">
<circle cx="236.182" cy="95.0014" r="81.3305" transform="rotate(100.524 236.182 95.0014)" fill="#FFE99D"/>
<ellipse cx="257.055" cy="96.2957" rx="6.29561" ry="6.57852" transform="rotate(90 257.055 96.2957)" fill="black"/>
<ellipse cx="204.425" cy="96.2957" rx="6.29561" ry="6.57852" transform="rotate(90 204.425 96.2957)" fill="black"/>
<path d="M272.404 137.565V137.565C250.684 159.979 214.827 160.298 192.712 138.274L192 137.565" stroke="black" stroke-width="4"/>
<circle cx="368.817" cy="94.8175" r="81.3305" transform="rotate(100.524 368.817 94.8175)" fill="#F59607"/>
<ellipse cx="370.228" cy="63.7964" rx="6.12679" ry="6.40211" transform="rotate(78.2253 370.228 63.7964)" fill="black"/>
<ellipse cx="320.088" cy="74.2481" rx="6.12679" ry="6.40211" transform="rotate(78.2253 320.088 74.2481)" fill="black"/>
<path d="M393.048 100.066V100.066C376.805 125.733 342.708 133.158 317.265 116.568L316.446 116.034" stroke="black" stroke-width="4"/>
<circle cx="94.8174" cy="94.8175" r="81.3305" transform="rotate(100.524 94.8174 94.8175)" fill="#FFD338"/>
<ellipse cx="147.593" cy="82.322" rx="6.07468" ry="6.27701" transform="rotate(112.454 147.593 82.322)" fill="black"/>
<ellipse cx="101.183" cy="63.1424" rx="6.07468" ry="6.27701" transform="rotate(112.454 101.183 63.1424)" fill="black"/>
<path d="M145.919 124.718V124.718C118.597 136.75 86.7287 123.91 75.3789 96.298L75.0166 95.4166" stroke="black" stroke-width="4"/>
</svg>
