<svg width="37" height="13" viewBox="0 0 37 13" fill="none" xmlns="http://www.w3.org/2000/svg">
<path d="M2.25519 12.128C1.78585 12.128 1.44985 12.0587 1.24719 11.92C1.04452 11.7813 0.921854 11.6 0.879188 11.376C0.836521 11.152 0.815188 10.912 0.815188 10.656V2.4C0.815188 2.16533 0.836521 1.94133 0.879188 1.728C0.921854 1.504 1.04452 1.32267 1.24719 1.184C1.44985 1.03467 1.79652 0.959999 2.28719 0.959999C2.61785 0.959999 2.85785 0.981332 3.00719 1.024C3.16719 1.06667 3.27919 1.12 3.34319 1.184C3.41785 1.248 3.49252 1.32267 3.56719 1.408L6.87919 5.664H6.78319L10.0792 1.424C10.1859 1.30667 10.2819 1.216 10.3672 1.152C10.4632 1.088 10.5859 1.04 10.7352 1.008C10.8952 0.975999 11.1192 0.959999 11.4072 0.959999C11.8872 0.959999 12.2285 1.03467 12.4312 1.184C12.6339 1.32267 12.7565 1.504 12.7992 1.728C12.8419 1.952 12.8632 2.18667 12.8632 2.432V10.688C12.8632 10.9227 12.8419 11.152 12.7992 11.376C12.7565 11.6 12.6339 11.7813 12.4312 11.92C12.2285 12.0587 11.8819 12.128 11.3912 12.128C10.9112 12.128 10.5699 12.0587 10.3672 11.92C10.1645 11.7707 10.0419 11.584 9.99919 11.36C9.95652 11.1253 9.93519 10.8907 9.93519 10.656V6.112L8.06319 8.656C8.02052 8.70933 7.95652 8.78933 7.87119 8.896C7.78585 9.00267 7.66319 9.09867 7.50319 9.184C7.34319 9.26933 7.11919 9.312 6.83119 9.312C6.54319 9.312 6.31385 9.26933 6.14319 9.184C5.98319 9.09867 5.86052 9.008 5.77519 8.912C5.68985 8.80533 5.62585 8.72 5.58319 8.656L3.72719 6.128V10.688C3.72719 10.9227 3.70585 11.152 3.66319 11.376C3.62052 11.6 3.49785 11.7813 3.29519 11.92C3.09252 12.0587 2.74585 12.128 2.25519 12.128ZM15.2407 12.128C14.7607 12.128 14.4194 12.0587 14.2167 11.92C14.014 11.7707 13.8914 11.584 13.8487 11.36C13.806 11.1253 13.7847 10.8853 13.7847 10.64V2.384C13.7847 2.14933 13.806 1.92 13.8487 1.696C13.8914 1.472 14.014 1.29067 14.2167 1.152C14.4194 1.00267 14.766 0.927999 15.2567 0.927999H19.0007C19.6514 0.927999 20.2327 1.088 20.7447 1.408C21.2567 1.71733 21.662 2.13333 21.9607 2.656C22.2594 3.17867 22.4087 3.744 22.4087 4.352C22.4087 4.55467 22.3874 4.76267 22.3447 4.976C22.3127 5.17867 22.254 5.38133 22.1687 5.584C22.094 5.776 21.998 5.96267 21.8807 6.144C22.062 6.368 22.2167 6.61333 22.3447 6.88C22.4727 7.136 22.5687 7.40267 22.6327 7.68C22.6967 7.94667 22.7287 8.21867 22.7287 8.496C22.718 9.008 22.6167 9.488 22.4247 9.936C22.2434 10.3733 21.9874 10.7573 21.6567 11.088C21.326 11.408 20.9474 11.664 20.5207 11.856C20.094 12.0373 19.6407 12.128 19.1607 12.128H15.2407ZM16.7127 9.2H19.0007C19.0754 9.2 19.1767 9.18933 19.3047 9.168C19.4327 9.136 19.5447 9.06133 19.6407 8.944C19.7474 8.816 19.8007 8.608 19.8007 8.32C19.8007 8.17067 19.7847 8.048 19.7527 7.952C19.7314 7.84533 19.694 7.76533 19.6407 7.712C19.5874 7.648 19.5234 7.60533 19.4487 7.584C19.3847 7.552 19.3047 7.53067 19.2087 7.52C19.1234 7.50933 19.0274 7.504 18.9207 7.504H18.7127C18.286 7.504 17.982 7.41333 17.8007 7.232C17.6194 7.05067 17.5287 6.73067 17.5287 6.272C17.5287 5.83467 17.6247 5.53067 17.8167 5.36C18.0194 5.17867 18.3447 5.088 18.7927 5.088H18.9847C19.07 5.088 19.1447 5.08267 19.2087 5.072C19.2727 5.06133 19.3207 5.03467 19.3527 4.992C19.3954 4.94933 19.4274 4.89067 19.4487 4.816C19.47 4.73067 19.4807 4.61867 19.4807 4.48C19.4807 4.23467 19.422 4.06933 19.3047 3.984C19.198 3.89867 18.9794 3.856 18.6487 3.856H16.7127V9.2ZM31.3543 0.927999C31.557 0.927999 31.749 0.944 31.9303 0.976C32.1116 1.008 32.261 1.10933 32.3783 1.28C32.5063 1.45067 32.5703 1.744 32.5703 2.16C32.5703 2.56533 32.5063 2.85867 32.3783 3.04C32.261 3.21067 32.1063 3.312 31.9143 3.344C31.733 3.376 31.541 3.392 31.3383 3.392H29.1303V10.72C29.1303 10.9547 29.109 11.184 29.0663 11.408C29.0236 11.6213 28.901 11.7973 28.6983 11.936C28.5063 12.0747 28.165 12.144 27.6743 12.144C27.205 12.144 26.869 12.0747 26.6663 11.936C26.4636 11.7867 26.341 11.6053 26.2983 11.392C26.2663 11.168 26.2503 10.9387 26.2503 10.704V3.392H24.0263C23.8343 3.392 23.6423 3.376 23.4503 3.344C23.269 3.30133 23.1143 3.19467 22.9863 3.024C22.869 2.85333 22.8103 2.56 22.8103 2.144C22.8103 1.73867 22.869 1.45067 22.9863 1.28C23.1143 1.10933 23.2743 1.008 23.4663 0.976C23.6583 0.944 23.8503 0.927999 24.0423 0.927999H31.3543ZM34.7087 12.144C34.2287 12.144 33.8874 12.0747 33.6847 11.936C33.482 11.7867 33.3594 11.6 33.3167 11.376C33.274 11.1413 33.2527 10.9067 33.2527 10.672V2.4C33.2527 2.16533 33.274 1.936 33.3167 1.712C33.3594 1.488 33.482 1.30667 33.6847 1.168C33.8874 1.01867 34.234 0.943999 34.7247 0.943999C35.2154 0.943999 35.5567 1.01867 35.7487 1.168C35.9514 1.30667 36.074 1.488 36.1167 1.712C36.1594 1.936 36.1807 2.17067 36.1807 2.416V10.688C36.1807 10.9227 36.1594 11.152 36.1167 11.376C36.074 11.6 35.9514 11.7867 35.7487 11.936C35.546 12.0747 35.1994 12.144 34.7087 12.144Z" fill="#D9D9D9"/>
</svg>
