<svg width="17" height="18" viewBox="0 0 17 18" fill="none" xmlns="http://www.w3.org/2000/svg">
<path d="M13.7598 1.6603e-05H13.7693C14.6627 1.6603e-05 15.4711 0.364154 16.0542 0.952089L16.0544 0.952305C16.6387 1.53888 16.9999 2.34795 16.9999 3.24145C16.9999 4.13884 16.6355 4.95109 16.0466 5.53836L16.0465 5.53842L5.28345 16.318L-0.00170898 17.01L0.690301 11.7248L11.4699 0.960943C12.0541 0.370118 12.8638 0.00325597 13.7592 0L13.7598 1.6603e-05ZM4.73304 15.1998L15.2146 4.70252C15.5886 4.33121 15.8203 3.81698 15.8209 3.24863V3.24851V3.24652C15.8209 2.67649 15.5911 2.16009 15.2192 1.78492L15.2193 1.78505C14.8486 1.41078 14.3346 1.17904 13.7665 1.17904C13.1964 1.17904 12.6808 1.41238 12.31 1.78874L12.3058 1.79293L1.80851 12.2753L1.36739 15.641L4.73304 15.1998ZM13.7449 7.00658L10.0017 3.26346L10.8353 2.4299L14.5784 6.17302L13.7449 7.00658ZM-0.00170898 17.0108L0.75165 11.2577L1.40035 11.4299C2.43362 11.7098 3.31995 12.2385 4.02324 12.9487L4.02368 12.9492C4.75151 13.6567 5.29273 14.5525 5.56884 15.5579L5.57831 15.5985L5.75212 16.2472L-0.00170898 17.0108ZM1.7401 12.7927L1.36736 15.6394L4.21401 15.2611C3.96247 14.6889 3.62046 14.2013 3.20067 13.7932L3.19961 13.7922L3.19017 13.7828C2.785 13.373 2.30392 13.0393 1.76959 12.8043L1.7401 12.7927ZM4.05676 13.7851L3.2232 12.9515L11.8733 4.30144L12.7068 5.13503L4.05676 13.7851Z" fill="black"/>
</svg>
