<svg width="25" height="25" viewBox="0 0 25 25" fill="none" xmlns="http://www.w3.org/2000/svg">
<g clip-path="url(#clip0_325_161)">
<path d="M13.5509 4.73836C13.1603 4.34783 13.1603 3.71467 13.5509 3.32414L13.9804 2.89461C14.3709 2.50408 15.0041 2.50408 15.3946 2.89461L24.2929 11.7929C24.6834 12.1834 24.6834 12.8166 24.2929 13.2071L15.3946 22.1054C15.0041 22.4959 14.3709 22.4959 13.9804 22.1054L13.5509 21.6759C13.1603 21.2853 13.1603 20.6522 13.5509 20.2616L20.6054 13.2071C20.9959 12.8166 20.9959 12.1834 20.6054 11.7929L13.5509 4.73836Z" fill="black"/>
</g>
<defs>
<clipPath id="clip0_325_161">
<rect width="25" height="25" fill="white" transform="matrix(-1 0 0 1 25 0)"/>
</clipPath>
</defs>
</svg>
