<svg width="54" height="55" viewBox="0 0 54 55" fill="none" xmlns="http://www.w3.org/2000/svg">
<path fill-rule="evenodd" clip-rule="evenodd" d="M44.8235 2.44071C43.0058 0.866494 40.6816 0 38.277 0H10C4.47715 0 0 4.47715 0 10V44C0 49.5228 4.47715 54 10 54H44C49.5228 54 54 49.5228 54 44V14.9563C54 12.0549 52.7398 9.29645 50.5465 7.39701L44.8235 2.44071Z" fill="#F59607"/>
<ellipse cx="26.9999" cy="27.2945" rx="9.54444" ry="9.8427" transform="rotate(-0.715866 26.9999 27.2945)" fill="#FFD338"/>
<path d="M24.1286 24.2026C24.1361 24.8022 23.6561 25.2943 23.0566 25.3018C22.457 25.3093 21.9649 24.8293 21.9574 24.2298C21.9499 23.6302 22.4299 23.1381 23.0294 23.1306C23.629 23.1231 24.1211 23.6031 24.1286 24.2026Z" fill="black"/>
<circle cx="23.1189" cy="30.2953" r="1.08568" transform="rotate(-0.715866 23.1189 30.2953)" fill="black"/>
<path d="M28.1473 22.0228V22.0228C30.7192 24.8806 30.8109 29.1907 28.3631 32.1554L28.2753 32.2618" stroke="black" stroke-width="2"/>
<path d="M12.4612 51.251C12.1252 51.251 11.8826 51.1997 11.7332 51.097C11.5932 50.9943 11.5046 50.8637 11.4672 50.705C11.4299 50.537 11.4112 50.3597 11.4112 50.173V42.515C11.4112 42.3377 11.4299 42.1743 11.4672 42.025C11.5046 41.8663 11.5979 41.7357 11.7472 41.633C11.8966 41.5303 12.1439 41.479 12.4892 41.479C12.7226 41.479 12.8999 41.493 13.0212 41.521C13.1426 41.549 13.2312 41.591 13.2872 41.647C13.3432 41.6937 13.4039 41.7497 13.4692 41.815L16.6192 46.071H16.4092L19.5732 41.815C19.6479 41.7217 19.7226 41.6517 19.7972 41.605C19.8719 41.5583 19.9652 41.5257 20.0772 41.507C20.1986 41.4883 20.3666 41.479 20.5812 41.479C20.9172 41.479 21.1599 41.5303 21.3092 41.633C21.4586 41.7357 21.5519 41.871 21.5892 42.039C21.6266 42.1977 21.6452 42.3657 21.6452 42.543V50.201C21.6452 50.3783 21.6266 50.5463 21.5892 50.705C21.5519 50.8637 21.4586 50.9943 21.3092 51.097C21.1599 51.1997 20.9126 51.251 20.5672 51.251C20.2312 51.251 19.9886 51.1997 19.8392 51.097C19.6899 50.9943 19.5966 50.859 19.5592 50.691C19.5219 50.523 19.5032 50.3503 19.5032 50.173V45.175L17.4172 48.129C17.3799 48.1757 17.3286 48.241 17.2632 48.325C17.1979 48.3997 17.1046 48.465 16.9832 48.521C16.8712 48.577 16.7172 48.605 16.5212 48.605C16.3159 48.605 16.1526 48.577 16.0312 48.521C15.9192 48.465 15.8306 48.3997 15.7652 48.325C15.6999 48.2503 15.6439 48.185 15.5972 48.129L13.5252 45.189V50.201C13.5252 50.3783 13.5066 50.5463 13.4692 50.705C13.4319 50.8637 13.3386 50.9943 13.1892 51.097C13.0492 51.1997 12.8066 51.251 12.4612 51.251ZM23.8216 51.251C23.4856 51.251 23.2429 51.1997 23.0936 51.097C22.9443 50.985 22.8509 50.845 22.8136 50.677C22.7856 50.4997 22.7716 50.3177 22.7716 50.131V42.543C22.7716 42.3563 22.7856 42.1837 22.8136 42.025C22.8509 41.857 22.9443 41.7217 23.0936 41.619C23.2429 41.507 23.4903 41.451 23.8356 41.451H27.3216C27.8723 41.451 28.3623 41.5817 28.7916 41.843C29.2209 42.1043 29.5616 42.4543 29.8136 42.893C30.0656 43.3317 30.1869 43.8077 30.1776 44.321C30.1869 44.5263 30.1683 44.727 30.1216 44.923C30.0749 45.119 30.0049 45.3103 29.9116 45.497C29.8276 45.6743 29.7203 45.8377 29.5896 45.987C29.7856 46.1737 29.9489 46.3883 30.0796 46.631C30.2103 46.8643 30.3083 47.1117 30.3736 47.373C30.4483 47.6343 30.4856 47.9003 30.4856 48.171C30.4763 48.6003 30.3923 49.0063 30.2336 49.389C30.0843 49.7623 29.8696 50.089 29.5896 50.369C29.3096 50.6397 28.9876 50.8543 28.6236 51.013C28.2596 51.1717 27.8723 51.251 27.4616 51.251H23.8216ZM24.8996 49.137H27.3216C27.4803 49.137 27.6389 49.109 27.7976 49.053C27.9656 48.9877 28.1009 48.8757 28.2036 48.717C28.3156 48.549 28.3716 48.3157 28.3716 48.017C28.3716 47.821 28.3483 47.6577 28.3016 47.527C28.2549 47.3963 28.1896 47.2983 28.1056 47.233C28.0216 47.1583 27.9283 47.107 27.8256 47.079C27.7229 47.051 27.6156 47.0323 27.5036 47.023C27.3916 47.0137 27.2843 47.009 27.1816 47.009H26.7756C26.4583 47.009 26.2343 46.9437 26.1036 46.813C25.9729 46.673 25.9076 46.435 25.9076 46.099C25.9076 45.7723 25.9776 45.5437 26.1176 45.413C26.2669 45.2823 26.5003 45.217 26.8176 45.217H27.2236C27.3169 45.217 27.4149 45.2123 27.5176 45.203C27.6203 45.1937 27.7089 45.1657 27.7836 45.119C27.8676 45.0723 27.9329 44.9977 27.9796 44.895C28.0356 44.783 28.0636 44.6337 28.0636 44.447C28.0636 44.1297 27.9843 43.9057 27.8256 43.775C27.6669 43.635 27.3869 43.565 26.9856 43.565H24.8996V49.137ZM38.3377 41.451C38.4964 41.451 38.6411 41.465 38.7717 41.493C38.9024 41.521 39.0097 41.6003 39.0937 41.731C39.1871 41.8523 39.2337 42.067 39.2337 42.375C39.2337 42.6643 39.1871 42.8743 39.0937 43.005C39.0097 43.1357 38.8977 43.215 38.7577 43.243C38.6177 43.271 38.4684 43.285 38.3097 43.285H36.0557V50.215C36.0557 50.3923 36.0371 50.5603 35.9997 50.719C35.9717 50.8777 35.8831 51.0083 35.7337 51.111C35.5937 51.2043 35.3511 51.251 35.0057 51.251C34.6697 51.251 34.4271 51.2043 34.2777 51.111C34.1284 51.0083 34.0397 50.8777 34.0117 50.719C33.9837 50.551 33.9697 50.3783 33.9697 50.201V43.285H31.6877C31.5384 43.285 31.3937 43.271 31.2537 43.243C31.1137 43.2057 31.0017 43.1263 30.9177 43.005C30.8337 42.8743 30.7917 42.6597 30.7917 42.361C30.7917 42.0623 30.8337 41.8523 30.9177 41.731C31.0017 41.6003 31.1137 41.521 31.2537 41.493C31.3937 41.465 31.5384 41.451 31.6877 41.451H38.3377ZM41.1579 51.251C40.8219 51.251 40.5792 51.2043 40.4299 51.111C40.2805 51.0083 40.1872 50.873 40.1499 50.705C40.1219 50.537 40.1079 50.3643 40.1079 50.187V42.529C40.1079 42.3423 40.1219 42.1697 40.1499 42.011C40.1872 41.8523 40.2805 41.7217 40.4299 41.619C40.5792 41.5163 40.8265 41.465 41.1719 41.465C41.5265 41.465 41.7739 41.5163 41.9139 41.619C42.0632 41.7217 42.1519 41.8523 42.1799 42.011C42.2172 42.1697 42.2359 42.347 42.2359 42.543V50.201C42.2359 50.3783 42.2172 50.551 42.1799 50.719C42.1425 50.8777 42.0492 51.0083 41.8999 51.111C41.7599 51.2043 41.5125 51.251 41.1579 51.251Z" fill="white"/>
<path d="M16.0312 0H38.8125V10.5C38.8125 12.1569 37.4694 13.5 35.8125 13.5H19.0312C17.3744 13.5 16.0312 12.1569 16.0312 10.5V0Z" fill="#FFD338"/>
<rect x="30.375" y="1.6875" width="5.0625" height="10.125" fill="#BA7001"/>
</svg>
