<svg width="15" height="18" viewBox="0 0 15 18" fill="none" xmlns="http://www.w3.org/2000/svg">
<path d="M11.0367 17.353H3.79404C2.74485 17.353 1.88768 16.5309 1.83159 15.4957L1.8314 15.4908L1.16095 3.4991H13.6695L13.002 15.493C12.9449 16.5321 12.0885 17.3531 11.0402 17.3531H11.0365H11.0367L11.0367 17.353ZM2.33719 4.61161L2.94237 15.4307C2.9659 15.8827 3.33803 16.2404 3.79375 16.2406H11.0359C11.4909 16.2404 11.8626 15.884 11.8872 15.4351L11.8873 15.4329L12.4932 4.61158L2.33719 4.61161ZM14.4979 4.61161H0.33252V3.49912H14.4979V4.61161ZM5.99868 0.666032H8.83175C9.92077 0.667303 10.8033 1.54976 10.8045 2.63868V4.61158H4.0259V2.6388C4.02717 1.54977 4.90963 0.667287 5.99855 0.666016H5.99866L5.99868 0.666032ZM9.69206 3.49912V2.63881C9.69164 2.16385 9.30671 1.77893 8.8318 1.7785H5.99868C5.52372 1.77891 5.1388 2.16384 5.13837 2.63876V3.4991L9.69206 3.49912ZM7.97144 14.6757H6.85897V6.17645H7.97144V14.6757ZM10.8045 14.6757H9.69206V6.17645H10.8045V14.6757ZM5.13837 14.6757H4.0259V6.17645H5.13837V14.6757Z" fill="black"/>
</svg>
