<svg width="43" height="39" viewBox="0 0 43 39" fill="none" xmlns="http://www.w3.org/2000/svg">
<line x1="25.2015" y1="21.0278" x2="34.77" y2="27.7277" stroke="#C8C8C8" stroke-width="4" stroke-linecap="round"/>
<line x1="25.3919" y1="28.8183" x2="32.0918" y2="19.2498" stroke="#C8C8C8" stroke-width="4" stroke-linecap="round"/>
<circle cx="16.2504" cy="15.2876" r="8.97667" transform="rotate(-55 16.2504 15.2876)" fill="#E7E7E7" stroke="#C8C8C8" stroke-width="4"/>
<circle cx="12.5248" cy="16.5074" r="1.5681" transform="rotate(-55 12.5248 16.5074)" fill="#C8C8C8"/>
<circle cx="16.1227" cy="11.3694" r="1.5681" transform="rotate(-55 16.1227 11.3694)" fill="#C8C8C8"/>
<path d="M15.0293 21.1324V21.1324C18.8334 19.7882 21.3631 16.1754 21.3253 12.1409V12.1409" stroke="#C8C8C8"/>
<path d="M15.5203 10.9475V10.9475C15.6865 10.2585 15.3966 9.53999 14.7988 9.15927V9.15927" stroke="#C8C8C8" stroke-width="0.5"/>
<path d="M15.97 10.3053V10.3053C16.1362 9.61629 15.8463 8.89778 15.2485 8.51706V8.51706" stroke="#C8C8C8" stroke-width="0.5"/>
<path d="M11.957 16.0363V16.0363C11.3664 16.4281 10.5921 16.4015 10.0299 15.9699V15.9699" stroke="#C8C8C8" stroke-width="0.5"/>
<path d="M11.5073 16.6783V16.6783C10.9167 17.0702 10.1424 17.0435 9.58016 16.612V16.612" stroke="#C8C8C8" stroke-width="0.5"/>
</svg>
