<svg width="42" height="39" viewBox="0 0 42 39" fill="none" xmlns="http://www.w3.org/2000/svg">
<line x1="24.6067" y1="21.2148" x2="34.1752" y2="27.9147" stroke="#F59607" stroke-width="4" stroke-linecap="round"/>
<line x1="24.7972" y1="29.0053" x2="31.4971" y2="19.4368" stroke="#F59607" stroke-width="4" stroke-linecap="round"/>
<circle cx="15.6557" cy="15.4746" r="8.97667" transform="rotate(-55 15.6557 15.4746)" fill="#FFE99D" stroke="#F59607" stroke-width="4"/>
<circle cx="11.93" cy="16.6944" r="1.5681" transform="rotate(-55 11.93 16.6944)" fill="#F59607"/>
<circle cx="15.5279" cy="11.5564" r="1.5681" transform="rotate(-55 15.5279 11.5564)" fill="#F59607"/>
<path d="M14.4346 21.3195V21.3195C18.2387 19.9752 20.7684 16.3624 20.7305 12.3279V12.3279" stroke="#F59607"/>
<path d="M14.9255 11.1345V11.1345C15.0918 10.4455 14.8019 9.727 14.204 9.34628V9.34628" stroke="#F59607" stroke-width="0.5"/>
<path d="M15.3752 10.4923V10.4923C15.5415 9.8033 15.2516 9.08479 14.6537 8.70407V8.70407" stroke="#F59607" stroke-width="0.5"/>
<path d="M11.3623 16.2233V16.2233C10.7717 16.6151 9.99738 16.5885 9.43514 16.1569V16.1569" stroke="#F59607" stroke-width="0.5"/>
<path d="M10.9126 16.8654V16.8654C10.322 17.2572 9.54767 17.2306 8.98543 16.799V16.799" stroke="#F59607" stroke-width="0.5"/>
</svg>
